<svg xmlns="http://www.w3.org/2000/svg" xmlns:xlink="http://www.w3.org/1999/xlink" width="500" zoomAndPan="magnify" viewBox="0 0 375 374.999991" height="500" preserveAspectRatio="xMidYMid meet" version="1.2"><defs><clipPath id="26b4fc813f"><path d="M 75.140625 70.460938 L 282 70.460938 L 282 304.460938 L 75.140625 304.460938 Z M 75.140625 70.460938 "/></clipPath><clipPath id="fa18d329c9"><path d="M 150.730469 126 L 299.851562 126 L 299.851562 166 L 150.730469 166 Z M 150.730469 126 "/></clipPath><clipPath id="5848d8c1fb"><path d="M 150.730469 122.789062 L 299.851562 122.789062 L 299.851562 162 L 150.730469 162 Z M 150.730469 122.789062 "/></clipPath><clipPath id="de4a699be6"><path d="M 284.605469 171 L 288.648438 171 L 288.648438 200 L 284.605469 200 Z M 284.605469 171 "/></clipPath><clipPath id="06771c4450"><path d="M 284.101562 171 L 286.628906 171 L 286.628906 200.039062 L 284.101562 200.039062 Z M 284.101562 171 "/></clipPath><clipPath id="5fab4b43c4"><path d="M 283 171 L 285.617188 171 L 285.617188 200.039062 L 283 200.039062 Z M 283 171 "/></clipPath><clipPath id="55f8045f91"><path d="M 281.070312 171 L 285 171 L 285 200 L 281.070312 200 Z M 281.070312 171 "/></clipPath></defs><g id="c697f7b04f"><rect x="0" width="375" y="0" height="374.999991" style="fill:#ffffff;fill-opacity:1;stroke:none;"/><rect x="0" width="375" y="0" height="374.999991" style="fill:#ffffff;fill-opacity:1;stroke:none;"/><path style=" stroke:none;fill-rule:nonzero;fill:#3573aa;fill-opacity:1;" d="M 257 254.214844 C 264.027344 241.933594 268.042969 227.710938 268.042969 212.550781 C 268.042969 207.539062 267.601562 202.628906 266.761719 197.863281 C 263.359375 216.773438 253.304688 233.378906 239.101562 245.15625 C 230.882812 251.972656 218.648438 250.589844 212.21875 242.066406 L 200.214844 226.164062 C 198.21875 223.519531 195.09375 221.964844 191.78125 221.964844 L 146.046875 221.964844 C 146.035156 221.964844 146.027344 221.964844 146.015625 221.964844 C 142.894531 221.988281 140.871094 225.277344 142.277344 228.074219 L 144.097656 231.699219 C 147.480469 238.4375 154.140625 242.917969 161.660156 243.511719 L 164.371094 243.726562 L 176.230469 244.660156 C 179.589844 244.925781 182.613281 246.78125 184.371094 249.65625 L 189.75 258.453125 L 192.761719 263.378906 L 209.632812 290.972656 C 209.933594 291.464844 210.3125 291.898438 210.738281 292.253906 C 211.976562 293.289062 213.652344 293.71875 215.277344 293.320312 C 215.289062 293.316406 215.300781 293.3125 215.3125 293.3125 C 259.074219 282.511719 292.789062 246.207031 299.785156 201.074219 C 293.640625 224.226562 277.863281 243.460938 257 254.214844 "/><g clip-rule="nonzero" clip-path="url(#26b4fc813f)"><path style=" stroke:none;fill-rule:nonzero;fill:#0d344f;fill-opacity:1;" d="M 181.144531 251.628906 C 180.023438 249.792969 178.078125 248.597656 175.933594 248.429688 L 161.363281 247.28125 C 152.582031 246.589844 144.667969 241.269531 140.714844 233.398438 L 138.992188 229.964844 C 137.765625 227.523438 137.738281 224.601562 139.089844 222.226562 C 140.488281 219.777344 143.003906 218.273438 145.796875 218.1875 L 146.046875 218.179688 L 160.6875 218.179688 C 155.914062 210.644531 147.3125 206.40625 138.40625 207.238281 L 123.191406 208.660156 C 116.675781 209.269531 110.820312 204.777344 109.617188 198.339844 C 108.730469 193.570312 108.265625 188.652344 108.265625 183.625 C 108.265625 158.132812 120.203125 135.429688 138.792969 120.804688 C 120.375 132.929688 106.042969 150.753906 98.308594 171.769531 C 105.277344 121.144531 148.703125 82.144531 201.246094 82.144531 C 233.769531 82.144531 262.800781 97.089844 281.855469 120.484375 C 261.605469 90.492188 227.339844 70.746094 188.453125 70.644531 C 126.207031 70.484375 75.265625 121.203125 75.171875 183.453125 C 75.140625 205.367188 81.355469 225.824219 92.121094 243.15625 C 92.347656 243.519531 92.574219 243.890625 92.804688 244.253906 L 107.886719 241.695312 C 114.621094 240.554688 120.167969 247.066406 117.875 253.507812 C 117.8125 253.683594 117.773438 253.78125 117.773438 253.78125 C 127.480469 257.3125 125.84375 266.769531 125.84375 266.769531 C 134.417969 270.679688 130.886719 278.746094 130.886719 278.746094 C 133.917969 280 134.980469 282.453125 135.253906 283.253906 C 135.394531 283.664062 135.550781 284.066406 135.707031 284.472656 L 141.570312 299.519531 C 142.582031 302.105469 145.675781 304.222656 148.453125 304.222656 C 151.957031 304.222656 154.382812 300.71875 153.148438 297.441406 L 150.40625 290.136719 L 146.746094 280.390625 C 146.488281 279.710938 146.953125 278.964844 147.695312 278.910156 C 148.179688 278.875 148.621094 279.191406 148.808594 279.640625 L 153.617188 291.222656 L 157.179688 299.792969 C 158.40625 302.746094 161.640625 304.4375 164.710938 303.542969 C 168.386719 302.46875 170.214844 298.351562 168.554688 294.90625 C 168.554688 294.902344 168.550781 294.898438 168.550781 294.894531 L 159.742188 276.699219 C 159.363281 275.917969 159.878906 275 160.742188 274.917969 C 161.242188 274.871094 161.722656 275.128906 161.960938 275.570312 L 172.679688 295.546875 L 174.007812 298.023438 C 175.320312 300.464844 178.191406 301.738281 180.820312 300.867188 C 182.867188 300.1875 184.230469 298.476562 184.589844 296.542969 C 184.8125 295.363281 184.660156 294.101562 184.058594 292.9375 L 175.671875 276.679688 C 175.300781 275.964844 175.574219 275.046875 176.316406 274.738281 C 176.976562 274.464844 177.714844 274.746094 178.039062 275.355469 L 187.519531 293.265625 C 188.285156 294.710938 189.425781 295.832031 190.761719 296.574219 C 192.980469 297.804688 195.738281 297.980469 198.195312 296.820312 C 198.671875 296.597656 199.105469 296.328125 199.511719 296.035156 C 202.871094 293.59375 203.925781 288.894531 201.671875 285.203125 L 181.144531 251.628906 "/></g><path style=" stroke:none;fill-rule:nonzero;fill:#3573aa;fill-opacity:1;" d="M 99.1875 258.417969 L 111.050781 256.449219 C 114.609375 255.859375 117.015625 252.496094 116.425781 248.9375 C 115.835938 245.375 112.472656 242.96875 108.910156 243.558594 L 97.046875 245.527344 C 93.488281 246.117188 91.082031 249.480469 91.671875 253.042969 C 92.261719 256.601562 95.628906 259.007812 99.1875 258.417969 "/><path style=" stroke:none;fill-rule:nonzero;fill:#3573aa;fill-opacity:1;" d="M 122.480469 261.796875 C 121.886719 258.238281 118.523438 255.832031 114.964844 256.421875 L 98.773438 259.515625 C 95.210938 260.105469 92.804688 263.46875 93.394531 267.03125 C 93.988281 270.589844 97.351562 273 100.910156 272.40625 L 117.101562 269.3125 C 120.664062 268.722656 123.070312 265.355469 122.480469 261.796875 "/><path style=" stroke:none;fill-rule:nonzero;fill:#3573aa;fill-opacity:1;" d="M 127.941406 275.246094 C 127.351562 271.6875 123.988281 269.28125 120.429688 269.871094 L 108.566406 271.835938 C 105.003906 272.429688 102.597656 275.792969 103.1875 279.355469 C 103.78125 282.914062 107.144531 285.320312 110.703125 284.730469 L 122.566406 282.761719 C 126.125 282.171875 128.53125 278.808594 127.941406 275.246094 "/><path style=" stroke:none;fill-rule:nonzero;fill:#3573aa;fill-opacity:1;" d="M 128.667969 282.480469 L 118.925781 284.03125 C 115.363281 284.621094 112.957031 287.984375 113.546875 291.546875 C 114.136719 295.105469 117.503906 297.511719 121.0625 296.921875 L 130.804688 295.371094 C 134.363281 294.78125 136.769531 291.414062 136.179688 287.855469 C 135.589844 284.296875 132.226562 281.890625 128.667969 282.480469 "/><path style=" stroke:none;fill-rule:nonzero;fill:#38bdec;fill-opacity:1;" d="M 185.367188 177.882812 C 185.367188 178.0625 185.386719 178.242188 185.414062 178.425781 C 186.066406 182.46875 193.246094 186.179688 203.042969 188.539062 C 209.574219 190.101562 217.269531 191.054688 224.96875 191.105469 C 244.757812 191.226562 264.539062 185.351562 264.730469 178.386719 L 264.921875 158.59375 L 264.953125 155.492188 L 265 151.503906 L 265.039062 147.152344 L 265.085938 142.308594 L 198.042969 141.878906 L 185.796875 141.800781 L 185.367188 177.882812 "/><path style=" stroke:none;fill-rule:nonzero;fill:#00aad8;fill-opacity:1;" d="M 185.652344 153.609375 C 188.277344 154.167969 265 155.472656 265 155.472656 L 264.972656 156.664062 L 264.921875 156.683594 L 225.839844 171.765625 L 195.003906 160.269531 L 194.988281 162.171875 C 194.988281 162.175781 194.988281 162.175781 194.988281 162.179688 C 195.226562 171.515625 197.046875 180.230469 200.039062 187.742188 C 191.808594 185.390625 185.996094 182.042969 185.414062 178.425781 C 185.386719 178.242188 185.367188 178.0625 185.367188 177.882812 L 185.652344 153.609375 "/><g clip-rule="nonzero" clip-path="url(#fa18d329c9)"><path style=" stroke:none;fill-rule:nonzero;fill:#0086cf;fill-opacity:1;" d="M 150.683594 142.164062 L 150.789062 146.097656 L 168.90625 150.835938 L 194.996094 157.65625 L 225.832031 165.71875 L 264.949219 155.492188 L 264.996094 155.472656 L 282.796875 150.816406 L 299.183594 146.535156 L 299.769531 146.382812 L 299.722656 143.460938 L 299.703125 142.441406 L 299.671875 142.433594 L 299.664062 142.433594 L 297.828125 142.050781 L 224.722656 126.757812 L 203.183594 131.242188 L 150.777344 142.148438 L 150.769531 142.148438 L 150.683594 142.164062 "/></g><g clip-rule="nonzero" clip-path="url(#5848d8c1fb)"><path style=" stroke:none;fill-rule:nonzero;fill:#38bdec;fill-opacity:1;" d="M 150.734375 142.136719 L 150.773438 142.148438 L 150.785156 142.148438 L 185.683594 151.277344 L 185.738281 151.285156 L 195.308594 153.792969 L 225.78125 161.757812 L 265 151.503906 L 265.046875 151.496094 L 298.109375 142.84375 L 299.667969 142.433594 L 299.675781 142.433594 L 299.714844 142.421875 L 297.785156 141.917969 L 224.671875 122.789062 L 205.519531 127.796875 L 150.785156 142.128906 L 150.734375 142.136719 "/></g><path style=" stroke:none;fill-rule:nonzero;fill:#00aad8;fill-opacity:1;" d="M 284.253906 170.714844 C 284.53125 170.714844 284.757812 170.492188 284.757812 170.210938 L 284.757812 148.25 C 284.757812 147.296875 284.003906 146.488281 283.046875 146.414062 L 229.503906 142.117188 C 229.246094 142.097656 228.980469 142.300781 228.957031 142.582031 C 228.9375 142.859375 229.144531 143.101562 229.421875 143.121094 L 282.964844 147.417969 C 283.402344 147.453125 283.75 147.820312 283.75 148.25 L 283.75 170.210938 C 283.75 170.492188 283.972656 170.714844 284.253906 170.714844 "/><path style=" stroke:none;fill-rule:nonzero;fill:#93e8ff;fill-opacity:1;" d="M 284.832031 170.1875 C 285.109375 170.1875 285.335938 169.960938 285.335938 169.683594 L 285.335938 147.726562 C 285.335938 146.773438 284.582031 145.960938 283.621094 145.886719 L 230.078125 141.589844 C 229.824219 141.570312 229.558594 141.773438 229.535156 142.050781 C 229.511719 142.328125 229.71875 142.570312 230 142.597656 L 283.542969 146.890625 C 283.980469 146.925781 284.324219 147.292969 284.324219 147.726562 L 284.324219 169.683594 C 284.324219 169.960938 284.550781 170.1875 284.832031 170.1875 "/><path style=" stroke:none;fill-rule:nonzero;fill:#0086cf;fill-opacity:1;" d="M 280.378906 198.007812 C 280.390625 198.683594 280.769531 199.289062 281.222656 199.277344 L 288.902344 199.117188 C 289.355469 199.109375 289.714844 198.484375 289.703125 197.8125 L 286.53125 172.488281 C 286.523438 171.8125 286.144531 171.269531 285.6875 171.277344 L 283.496094 171.324219 C 283.042969 171.332031 282.683594 171.894531 282.695312 172.566406 L 280.378906 198.007812 "/><path style=" stroke:none;fill-rule:nonzero;fill:#00aad8;fill-opacity:1;" d="M 289.34375 199.804688 L 289.515625 199.777344 C 289.90625 199.71875 290.183594 199.3125 290.128906 198.878906 L 286.777344 171.84375 C 286.722656 171.410156 286.359375 171.101562 285.96875 171.164062 L 285.796875 171.191406 C 285.40625 171.25 285.128906 171.65625 285.1875 172.089844 L 288.539062 199.125 C 288.589844 199.558594 288.953125 199.863281 289.34375 199.804688 "/><path style=" stroke:none;fill-rule:nonzero;fill:#93e8ff;fill-opacity:1;" d="M 289.371094 198.734375 C 289.707031 198.683594 289.945312 198.335938 289.898438 197.964844 L 286.644531 171.71875 C 286.597656 171.34375 286.289062 171.082031 285.953125 171.136719 C 285.617188 171.1875 285.382812 171.53125 285.425781 171.90625 L 288.679688 198.152344 C 288.726562 198.523438 289.039062 198.789062 289.371094 198.734375 "/><g clip-rule="nonzero" clip-path="url(#de4a699be6)"><path style=" stroke:none;fill-rule:nonzero;fill:#00aad8;fill-opacity:1;" d="M 287.492188 199.964844 L 287.667969 199.949219 C 288.058594 199.910156 288.355469 199.523438 288.320312 199.085938 L 286.242188 171.894531 C 286.210938 171.457031 285.863281 171.132812 285.472656 171.167969 L 285.296875 171.183594 C 284.902344 171.222656 284.613281 171.609375 284.644531 172.042969 L 286.71875 199.238281 C 286.753906 199.675781 287.101562 200.003906 287.492188 199.964844 "/></g><path style=" stroke:none;fill-rule:nonzero;fill:#93e8ff;fill-opacity:1;" d="M 287.574219 198.898438 C 287.910156 198.867188 288.164062 198.535156 288.136719 198.160156 L 286.121094 171.761719 C 286.089844 171.386719 285.792969 171.105469 285.453125 171.136719 C 285.117188 171.171875 284.867188 171.503906 284.894531 171.878906 L 286.910156 198.273438 C 286.9375 198.648438 287.238281 198.929688 287.574219 198.898438 "/><g clip-rule="nonzero" clip-path="url(#06771c4450)"><path style=" stroke:none;fill-rule:nonzero;fill:#00aad8;fill-opacity:1;" d="M 285.640625 200.046875 L 285.816406 200.042969 C 286.207031 200.027344 286.519531 199.65625 286.507812 199.222656 L 285.710938 171.941406 C 285.699219 171.503906 285.367188 171.160156 284.972656 171.171875 L 284.800781 171.179688 C 284.40625 171.195312 284.09375 171.5625 284.109375 172 L 284.902344 199.277344 C 284.914062 199.71875 285.246094 200.0625 285.640625 200.046875 "/></g><path style=" stroke:none;fill-rule:nonzero;fill:#93e8ff;fill-opacity:1;" d="M 285.769531 198.988281 C 286.109375 198.976562 286.375 198.660156 286.363281 198.285156 L 285.59375 171.804688 C 285.582031 171.429688 285.296875 171.128906 284.957031 171.144531 C 284.621094 171.15625 284.355469 171.472656 284.363281 171.847656 L 285.136719 198.328125 C 285.148438 198.703125 285.433594 199.003906 285.769531 198.988281 "/><g clip-rule="nonzero" clip-path="url(#5fab4b43c4)"><path style=" stroke:none;fill-rule:nonzero;fill:#00aad8;fill-opacity:1;" d="M 283.785156 200.054688 L 283.960938 200.058594 C 284.355469 200.066406 284.683594 199.71875 284.691406 199.277344 L 285.179688 171.992188 C 285.1875 171.554688 284.871094 171.191406 284.480469 171.179688 L 284.304688 171.175781 C 283.910156 171.167969 283.582031 171.519531 283.574219 171.957031 L 283.085938 199.242188 C 283.078125 199.679688 283.390625 200.046875 283.785156 200.054688 "/></g><path style=" stroke:none;fill-rule:nonzero;fill:#93e8ff;fill-opacity:1;" d="M 283.964844 199.003906 C 284.304688 199.011719 284.585938 198.710938 284.59375 198.335938 L 285.066406 171.847656 C 285.074219 171.46875 284.804688 171.15625 284.464844 171.148438 C 284.128906 171.140625 283.84375 171.441406 283.835938 171.816406 L 283.363281 198.308594 C 283.359375 198.683594 283.628906 199 283.964844 199.003906 "/><g clip-rule="nonzero" clip-path="url(#55f8045f91)"><path style=" stroke:none;fill-rule:nonzero;fill:#00aad8;fill-opacity:1;" d="M 281.933594 199.984375 L 282.105469 199.996094 C 282.5 200.03125 282.84375 199.699219 282.871094 199.261719 L 284.644531 172.039062 C 284.671875 171.605469 284.375 171.222656 283.980469 171.191406 L 283.804688 171.175781 C 283.414062 171.144531 283.070312 171.476562 283.042969 171.914062 L 281.269531 199.132812 C 281.242188 199.570312 281.539062 199.953125 281.933594 199.984375 "/></g><path style=" stroke:none;fill-rule:nonzero;fill:#93e8ff;fill-opacity:1;" d="M 282.160156 198.945312 C 282.5 198.972656 282.792969 198.6875 282.820312 198.3125 L 284.539062 171.890625 C 284.5625 171.511719 284.308594 171.183594 283.96875 171.15625 C 283.632812 171.128906 283.335938 171.414062 283.3125 171.789062 L 281.59375 198.214844 C 281.566406 198.589844 281.824219 198.917969 282.160156 198.945312 "/><path style=" stroke:none;fill-rule:nonzero;fill:#00aad8;fill-opacity:1;" d="M 280.082031 199.835938 L 280.253906 199.859375 C 280.644531 199.914062 281.003906 199.601562 281.054688 199.167969 L 284.101562 172.089844 C 284.152344 171.65625 283.871094 171.253906 283.480469 171.199219 L 283.304688 171.175781 C 282.914062 171.121094 282.554688 171.433594 282.507812 171.867188 L 279.457031 198.945312 C 279.410156 199.382812 279.691406 199.78125 280.082031 199.835938 "/><path style=" stroke:none;fill-rule:nonzero;fill:#93e8ff;fill-opacity:1;" d="M 280.355469 198.8125 C 280.691406 198.859375 281.003906 198.59375 281.042969 198.21875 L 284.003906 171.929688 C 284.046875 171.558594 283.804688 171.214844 283.46875 171.167969 C 283.132812 171.121094 282.828125 171.386719 282.785156 171.761719 L 279.824219 198.046875 C 279.78125 198.421875 280.023438 198.765625 280.355469 198.8125 "/><path style=" stroke:none;fill-rule:nonzero;fill:#00aad8;fill-opacity:1;" d="M 282.398438 169.933594 C 282.414062 170.234375 282.664062 170.46875 282.960938 170.457031 L 286.207031 170.34375 C 286.507812 170.332031 286.742188 170.082031 286.730469 169.785156 C 286.71875 169.484375 286.46875 169.253906 286.171875 169.261719 L 282.921875 169.375 C 282.625 169.386719 282.390625 169.636719 282.398438 169.933594 "/><path style=" stroke:none;fill-rule:nonzero;fill:#00aad8;fill-opacity:1;" d="M 282.441406 171.015625 C 282.449219 171.3125 282.699219 171.546875 283 171.535156 L 286.246094 171.425781 C 286.546875 171.414062 286.777344 171.164062 286.769531 170.863281 C 286.757812 170.566406 286.507812 170.332031 286.207031 170.34375 L 282.960938 170.457031 C 282.664062 170.46875 282.429688 170.71875 282.441406 171.015625 "/><path style=" stroke:none;fill-rule:nonzero;fill:#00aad8;fill-opacity:1;" d="M 282.363281 168.855469 C 282.375 169.152344 282.625 169.386719 282.921875 169.375 L 286.171875 169.261719 C 286.46875 169.253906 286.703125 169.003906 286.695312 168.703125 C 286.683594 168.40625 286.429688 168.171875 286.132812 168.183594 L 282.886719 168.296875 C 282.589844 168.304688 282.351562 168.554688 282.363281 168.855469 "/><path style=" stroke:none;fill-rule:nonzero;fill:#93e8ff;fill-opacity:1;" d="M 282.902344 168.714844 C 282.910156 168.90625 283.109375 169.058594 283.355469 169.050781 L 285.988281 168.957031 C 286.230469 168.949219 286.421875 168.785156 286.414062 168.59375 C 286.40625 168.402344 286.207031 168.253906 285.964844 168.261719 L 283.332031 168.355469 C 283.085938 168.363281 282.894531 168.523438 282.902344 168.714844 "/><path style=" stroke:none;fill-rule:nonzero;fill:#93e8ff;fill-opacity:1;" d="M 282.914062 169.753906 C 282.921875 169.941406 283.125 170.09375 283.367188 170.085938 L 286 169.992188 C 286.242188 169.984375 286.433594 169.820312 286.425781 169.628906 C 286.421875 169.4375 286.21875 169.289062 285.976562 169.296875 L 283.34375 169.386719 C 283.101562 169.398438 282.910156 169.558594 282.914062 169.753906 "/><path style=" stroke:none;fill-rule:nonzero;fill:#93e8ff;fill-opacity:1;" d="M 282.984375 170.851562 C 282.988281 171.046875 283.191406 171.195312 283.433594 171.1875 L 286.066406 171.09375 C 286.308594 171.085938 286.5 170.925781 286.496094 170.730469 C 286.488281 170.539062 286.285156 170.390625 286.042969 170.398438 L 283.410156 170.492188 C 283.167969 170.5 282.976562 170.664062 282.984375 170.851562 "/><path style=" stroke:none;fill-rule:nonzero;fill:#0086cf;fill-opacity:1;" d="M 218.335938 141.1875 C 218.324219 142.867188 219.371094 144.484375 225.210938 144.476562 C 231.046875 144.46875 232.113281 142.953125 232.125 141.273438 C 232.132812 139.59375 229.054688 138.730469 225.25 138.703125 C 221.441406 138.679688 218.347656 139.507812 218.335938 141.1875 "/><path style=" stroke:none;fill-rule:nonzero;fill:#00aad8;fill-opacity:1;" d="M 218.328125 140.96875 C 218.320312 142.203125 221.402344 143.226562 225.207031 143.25 C 229.015625 143.277344 232.105469 142.292969 232.117188 141.058594 C 232.125 139.820312 229.042969 138.449219 225.238281 138.425781 C 221.429688 138.398438 218.335938 139.730469 218.328125 140.96875 "/></g></svg>